#!OML:ASF H:\BabyWalks\Project 1\Capture day 1\Session 1\baby.ASF
:FULLY-SPECIFIED
:DEGREES
592
root 11.0702 17.4743 13.9719 -35.1504 82.0425 -46.251
lowerback 19.4206 3.25661 2.2631
upperback 4.42757 5.12032 2.24384
thorax -6.06427 2.57121 -0.12677
lowerneck -4.27428 0.095758 5.79808
upperneck -5.44454 -0.217327 -8.64465
head -1.01058 -0.091807 -3.86105
rclavicle -3.37934e-015 1.59028e-015
rhumerus -46.3894 11.4707 -80.7292
rradius 68.315
rwrist -8.63073
rhand -24.1993 -18.4733
rfingers 7.12502
rthumb 2.28484 -48.4408
lclavicle -3.37934e-015 1.59028e-015
lhumerus -70.4364 -6.28249 76.1803
lradius 49.2551
lwrist 0.0357926
lhand 2.90852 7.02928
lfingers 7.12502
lthumb 28.3731 34.8991
rfemur 7.16567 8.16929 23.8208
rtibia 9.54166e-015
rfoot -14.6587 -0.66114
rtoes -3.16653
lfemur -42.1903 -5.03361 -6.22976
ltibia 35.7731
lfoot -20.223 -5.66794
ltoes -5.92352
593
root 11.2517 17.4644 13.9975 -34.4518 81.8747 -45.3717
lowerback 19.2752 3.35339 1.82813
upperback 4.42875 5.12096 1.86321
thorax -5.9868 2.57424 -0.278433
lowerneck -4.30312 0.123403 5.45804
upperneck -5.35446 -0.145433 -7.6469
head -0.965931 -0.0634407 -3.44162
rclavicle 1.13307e-014 -3.26007e-014
rhumerus -46.7387 12.0508 -81.6418
rradius 69.2633
rwrist -8.88778
rhand -23.5776 -18.4529
rfingers 7.12502
rthumb 2.88528 -48.4132
lclavicle 1.13307e-014 -3.26007e-014
lhumerus -70.7473 -6.51651 75.4659
lradius 49.7081
lwrist 0.819099
lhand 2.69657 7.14134
lfingers 7.12502
lthumb 28.1706 35.0447
rfemur 7.99373 8.15218 23.9105
rtibia -2.22639e-014
rfoot -14.6418 -0.285564
rtoes -3.6122
lfemur -41.5175 -4.64264 -6.40838
ltibia 35.4478
lfoot -20.3531 -4.93948
ltoes -6.02641
594
root 11.4342 17.451 14.0212 -33.8508 81.6788 -44.5603
lowerback 19.1512 3.43286 1.42162
upperback 4.43901 5.10895 1.48035
thorax -5.9084 2.57144 -0.445812
lowerneck -4.3611 0.152435 5.11611
upperneck -5.2442 -0.071033 -6.63754
head -0.911149 -0.0331671 -3.02536
rclavicle -1.99779e-014 6.55989e-015
rhumerus -47.0594 12.6041 -82.5489
rradius 70.0851
rwrist -9.21525
rhand -22.9841 -18.4916
rfingers 7.12502
rthumb 3.45848 -48.4433
lclavicle -1.99779e-014 6.55989e-015
lhumerus -70.9267 -6.76441 74.8109
lradius 50.0556
lwrist 1.423
lhand 2.46042 7.19251
lfingers 7.12502
lthumb 27.9448 35.1328
rfemur 8.85312 8.15239 23.999
rtibia -4.13472e-014
rfoot -14.5614 0.147682
rtoes -4.12331
lfemur -40.7604 -4.20288 -6.6272
ltibia 35.2722
lfoot -20.4938 -4.41849
ltoes -6.3885
595
root 11.6174 17.435 14.0425 -33.4399 81.4549 -43.9274
lowerback 19.0464 3.49113 1.0618
upperback 4.45078 5.08256 1.10269
thorax -5.83523 2.56156 -0.631159
lowerneck -4.43058 0.183246 4.78269
upperneck -5.13622 0.00531034 -5.64046
head -0.856866 -0.000426547 -2.62239
rclavicle -4.18814e-014 -2.51214e-014
rhumerus -47.3557 13.1353 -83.4364
rradius 70.7879
rwrist -9.65027
rhand -22.4994 -18.5197
rfingers 7.12502
rthumb 3.92653 -48.4632
lclavicle -4.18814e-014 -2.51214e-014
lhumerus -70.9754 -7.01724 74.2213
lradius 50.2874
lwrist 1.82394
lhand 2.18799 7.1746
lfingers 7.12502
lthumb 27.6844 35.157
rfemur 9.72256 8.16306 24.096
rtibia 9.54166e-015
rfoot -14.402 0.636456
rtoes -4.73878
lfemur -39.9595 -3.75659 -6.83391
ltibia 35.2239
lfoot -20.5344 -4.19032
ltoes -6.94698
596
root 11.801 17.4177 14.0611 -33.2595 81.2125 -43.5291
lowerback 18.9564 3.52379 0.754007
upperback 4.45959 5.03654 0.734811
thorax -5.76999 2.54184 -0.831507
lowerneck -4.48995 0.218901 4.47351
upperneck -5.06026 0.0868864 -4.68202
head -0.816094 0.0368076 -2.24389
rclavicle 2.39039e-014 1.56046e-014
rhumerus -47.6304 13.62 -84.2908
rradius 71.3798
rwrist -10.1432
rhand -22.0333 -18.5875
rfingers 7.12502
rthumb 4.37664 -48.5223
lclavicle 2.39039e-014 1.56046e-014
lhumerus -70.8904 -7.26384 73.6997
lradius 50.3999
lwrist 2.03217
lhand 1.87196 7.09093
lfingers 7.12502
lthumb 27.3821 35.1215
rfemur 10.578 8.17301 24.2024
rtibia 6.36111e-015
rfoot -14.1187 1.17731
rtoes -5.56446
lfemur -39.1559 -3.3448 -6.99688
ltibia 35.2854
lfoot -20.4297 -4.1822
ltoes -7.64149
597
root 11.9846 17.4006 14.0769 -33.2201 80.9694 -43.2903
lowerback 18.8717 3.52961 0.477438
upperback 4.46686 4.96458 0.377865
thorax -5.70809 2.50953 -1.03202
lowerneck -4.52792 0.262975 4.19921
upperneck -5.04603 0.178317 -3.78684
head -0.799644 0.0807309 -1.89878
rclavicle 8.62725e-014 -3.16068e-014
rhumerus -47.8734 14.06 -85.1001
rradius 71.8472
rwrist -10.6563
rhand -21.581 -18.6738
rfingers 7.12502
rthumb 4.81337 -48.5991
lclavicle 8.62725e-014 -3.16068e-014
lhumerus -70.6608 -7.48595 73.2477
lradius 50.3877
lwrist 2.06601
lhand 1.50353 6.95338
lfingers 7.12502
lthumb 27.0297 35.0392
rfemur 11.3982 8.17471 24.2954
rtibia 9.54166e-015
rfoot -13.6651 1.77163
rtoes -6.66259
lfemur -38.3888 -3.00367 -7.11212
ltibia 35.4449
lfoot -20.1891 -4.36379
ltoes -8.43718
598
root 12.1678 17.3847 14.0899 -33.1925 80.7581 -43.094
lowerback 18.7854 3.50504 0.195618
upperback 4.47283 4.8544 0.0279064
thorax -5.64869 2.459 -1.21336
lowerneck -4.54332 0.321068 3.95955
upperneck -5.10411 0.288078 -2.9591
head -0.810318 0.135021 -1.58691
rclavicle 6.36111e-015 2.3059e-014
rhumerus -48.0801 14.4464 -85.854
rradius 72.196
rwrist -11.1455
rhand -21.0948 -18.8017
rfingers 7.12502
rthumb 5.28281 -48.7159
lclavicle 6.36111e-015 2.3059e-014
lhumerus -70.2805 -7.66683 72.8596
lradius 50.2496
lwrist 1.9583
lhand 1.08431 6.78527
lfingers 7.12502
lthumb 26.6285 34.9326
rfemur 12.1637 8.15266 24.3374
rtibia -9.54166e-015
rfoot -12.9925 2.41949
rtoes -8.05023
lfemur -37.6939 -2.76365 -7.20217
ltibia 35.6925
lfoot -19.8033 -4.6599
ltoes -9.20877
599
root 12.35 17.3707 14.1005 -33.0523 80.606 -42.822
lowerback 18.6985 3.45088 -0.128072
upperback 4.47789 4.69973 -0.319782
thorax -5.59458 2.38748 -1.35881
lowerneck -4.5332 0.393906 3.75637
upperneck -5.24032 0.418095 -2.20428
head -0.850137 0.199987 -1.30914
rclavicle 2.0276e-014 1.35174e-014
rhumerus -48.2533 14.7725 -86.5475
rradius 72.4284
rwrist -11.5635
rhand -20.601 -18.9478
rfingers 7.12502
rthumb 5.75958 -48.8495
lclavicle 2.0276e-014 1.35174e-014
lhumerus -69.7414 -7.79698 72.5266
lradius 49.9857
lwrist 1.73871
lhand 0.621536 6.59087
lfingers 7.12502
lthumb 26.1856 34.8047
rfemur 12.8589 8.09614 24.2929
rtibia 1.59028e-014
rfoot -12.0381 3.1263
rtoes -9.57212
lfemur -37.0928 -2.6297 -7.30204
ltibia 36.0224
lfoot -19.3063 -4.91971
ltoes -9.77175
600
root 12.5304 17.3587 14.1091 -32.7101 80.5398 -42.3856
lowerback 18.6105 3.36626 -0.523806
upperback 4.48612 4.49384 -0.66954
thorax -5.54272 2.29212 -1.45444
lowerneck -4.50901 0.481699 3.59526
upperneck -5.44487 0.568601 -1.53228
head -0.914041 0.275074 -1.06842
rclavicle 5.56597e-015 1.11319e-014
rhumerus -48.3947 15.0406 -87.1757
rradius 72.5558
rwrist -11.8984
rhand -20.1188 -19.105
rfingers 7.12502
rthumb 6.22512 -48.9935
lclavicle 5.56597e-015 1.11319e-014
lhumerus -69.0341 -7.87265 72.2407
lradius 49.5948
lwrist 1.43983
lhand 0.123051 6.38189
lfingers 7.12502
lthumb 25.7082 34.6657
rfemur 13.4711 7.99137 24.1331
rtibia -2.54444e-014
rfoot -10.7325 3.87216
rtoes -11.1421
lfemur -36.5943 -2.58415 -7.45742
ltibia 36.4298
lfoot -18.7886 -5.11631
ltoes -9.98885
